<svg width="65" height="62" viewBox="0 0 65 62" fill="none" xmlns="http://www.w3.org/2000/svg">
<path opacity="0.5" d="M64.067 2.44062L48.388 57.9842C48.3082 58.2363 47.9893 58.312 47.8033 58.1355L37.3064 48.1765L45.1724 20.3416C45.2522 20.0895 45.013 19.8626 44.7472 19.9382L15.4089 27.4012L4.96507 17.4926C4.77905 17.3161 4.85878 17.0136 5.12452 16.9379L63.6418 2.03722C63.9075 1.9868 64.1467 2.21371 64.067 2.44062Z" fill="#00B37E"/>
<path opacity="0.5" d="M53 41.2311L47.2613 61.5329C47.1481 61.8891 46.695 61.996 46.4308 61.7467L0.144031 18.1155C-0.120248 17.8662 -0.00698612 17.4388 0.370556 17.332L21.8905 11.8825L53 41.2311Z" fill="#00B37E"/>
<path d="M63.9775 1.48938L52.6192 41.8825L21 11.734L63.3635 0.903974C63.7473 0.79421 64.0926 1.1235 63.9775 1.48938Z" fill="#00B37E"/>
</svg>
